<svg xmlns="http://www.w3.org/2000/svg" width="32" height="768">
  <svg xmlns:xlink="http://www.w3.org/1999/xlink" width="32" height="32">
    <defs>
      <path d="M31.8 16c0-.58-.48-1.07-1.07-1.07h-1.54l1.46-1.46a1.08 1.08 0 0 0-1.52-1.52l-2.98 2.98H18.5l5.4-5.4h4.23a1.08 1.08 0 0 0 0-2.15h-2.07l1.09-1.1a1.08 1.08 0 0 0-1.52-1.52l-1.1 1.1V3.78a1.08 1.08 0 0 0-2.15 0V8l-5.4 5.4V5.77l2.98-2.99a1.08 1.08 0 1 0-1.52-1.52l-1.46 1.46V1.18a1.08 1.08 0 0 0-2.15 0v1.54l-1.47-1.46a1.08 1.08 0 1 0-1.52 1.52l2.99 2.99v7.64l-5.4-5.4V3.79a1.08 1.08 0 0 0-2.16 0v2.06l-1.1-1.09a1.08 1.08 0 1 0-1.5 1.54l1.09 1.09H3.68a1.08 1.08 0 0 0 0 2.15H7.9l5.4 5.4H5.67l-2.98-2.98a1.08 1.08 0 1 0-1.52 1.52l1.46 1.46H1.08a1.08 1.08 0 1 0 0 2.16h1.54l-1.46 1.46a1.08 1.08 0 1 0 1.52 1.52l2.98-2.98h7.65L7.9 22.5H3.68a1.08 1.08 0 0 0 0 2.15h2.07l-1.1 1.1a1.08 1.08 0 1 0 1.53 1.52l1.09-1.1v2.07a1.08 1.08 0 1 0 2.15 0v-4.22l5.4-5.4v7.64l-2.98 2.99a1.08 1.08 0 1 0 1.52 1.52l1.47-1.47v1.55a1.08 1.08 0 0 0 2.15 0V29.3l1.46 1.47a1.07 1.07 0 0 0 1.52 0c.42-.42.42-1.1 0-1.52l-2.98-2.99v-7.64l5.4 5.4v4.22a1.08 1.08 0 0 0 2.16 0v-2.07l1.09 1.1a1.07 1.07 0 0 0 1.52 0c.42-.43.42-1.1 0-1.53l-1.1-1.09h2.08a1.08 1.08 0 0 0 0-2.15H23.9l-5.41-5.4h7.65l2.98 2.98a1.07 1.07 0 0 0 1.52 0c.42-.42.42-1.1 0-1.52l-1.46-1.46h1.54c.6 0 1.08-.49 1.08-1.08z" id="a"/>
    </defs>
    <g fill="none" fill-rule="evenodd">
      <mask id="b" fill="#fff">
        <use xlink:href="#a"/>
      </mask>
      <use fill="#000" fill-rule="nonzero" xlink:href="#a"/>
      <g mask="url(#b)" fill="#0A578C">
        <path d="M0 0h32v32H0z"/>
      </g>
    </g>
  </svg>
  <svg xmlns:xlink="http://www.w3.org/1999/xlink" width="32" height="32" y="32">
    <defs>
      <path d="M1.84 27.67h1.84V8.07H1.84A1.82 1.82 0 0 0 0 9.9v15.94c0 1.01.82 1.83 1.84 1.83zm16.14-19.6h-4.09a2.04 2.04 0 1 1 4.09 0zM4.9 27.66h22.06V8.07H19a3.06 3.06 0 1 0-6.13 0H4.9v19.6zm26.97-1.83V9.9c0-1.01-.83-1.84-1.84-1.84h-1.84v19.61h1.84c1.01 0 1.84-.82 1.84-1.83z" id="c"/>
    </defs>
    <g fill="none" fill-rule="evenodd">
      <mask id="d" fill="#fff">
        <use xlink:href="#c"/>
      </mask>
      <use fill="#000" fill-rule="nonzero" xlink:href="#c"/>
      <g mask="url(#d)" fill="#0A578C">
        <path d="M0 0h32v32H0z"/>
      </g>
    </g>
  </svg>
  <svg xmlns:xlink="http://www.w3.org/1999/xlink" width="32" height="32" y="64">
    <defs>
      <path d="M25.06 17.71v-5.43l4.8 4.8a1.05 1.05 0 0 0 1.48 0c.41-.42.41-1.08 0-1.5l-6.28-6.3V5.04A5.07 5.07 0 0 0 20 0h-8.3a5.07 5.07 0 0 0-5.07 5.04v4.24l-6.27 6.3a1.05 1.05 0 1 0 1.48 1.5l4.8-4.8v5.43L.34 24a1.05 1.05 0 1 0 1.48 1.48l4.8-4.79v6.18a5.06 5.06 0 0 0 5.06 5.04H20a5.07 5.07 0 0 0 5.07-5.04v-6.18l4.8 4.8a1.05 1.05 0 0 0 1.48 0c.41-.42.41-1.08 0-1.5l-6.28-6.27zM11.7 2.1H20a2.94 2.94 0 0 1 2.94 2.94v2.33a3.9 3.9 0 0 0-1.82-.47H10.57a3.9 3.9 0 0 0-1.82.47V5.04A2.94 2.94 0 0 1 11.7 2.1zM20 29.8h-8.3a2.94 2.94 0 0 1-2.94-2.94v-.23a3.9 3.9 0 0 0 1.82.47h10.54a3.9 3.9 0 0 0 1.82-.47v.23A2.94 2.94 0 0 1 20 29.8z" id="e"/>
    </defs>
    <g fill="none" fill-rule="evenodd">
      <mask id="f" fill="#fff">
        <use xlink:href="#e"/>
      </mask>
      <use fill="#000" fill-rule="nonzero" xlink:href="#e"/>
      <g mask="url(#f)" fill="#0A578C">
        <path d="M0 0h32v32H0z"/>
      </g>
    </g>
  </svg>
  <svg xmlns:xlink="http://www.w3.org/1999/xlink" width="32" height="32" y="96">
    <defs>
      <path d="M28 7.83V17h-9.17A3 3 0 0 1 17 18.83v5.34a3 3 0 1 1-2 0v-5.34A3 3 0 0 1 13.17 17H6v7.17a3 3 0 1 1-2 0V7.83a3 3 0 1 1 2 0V15h7.17A3 3 0 0 1 15 13.17V7.83a3 3 0 1 1 2 0v5.34A3 3 0 0 1 18.83 15H26V7.83a3 3 0 1 1 2 0z" id="g"/>
    </defs>
    <g fill="none" fill-rule="evenodd">
      <mask id="h" fill="#fff">
        <use xlink:href="#g"/>
      </mask>
      <use fill="#D8D8D8" xlink:href="#g"/>
      <g mask="url(#h)" fill="#0A578C">
        <path d="M0 0h32v32H0z"/>
      </g>
    </g>
  </svg>
  <svg height="32" viewBox="0 0 139 139" width="32" y="128">
    <path d="M69.9 6.77v-.02h-.8v.02A49.14 49.14 0 0 0 20.75 55.9c0 36.22 42.52 70.6 48.75 75.48 6.23-4.88 48.75-39.26 48.75-75.48A49.14 49.14 0 0 0 69.9 6.76zm0 70.27a25.36 25.36 0 1 1-.01-50.73 25.36 25.36 0 0 1 0 50.73z" fill="#FAD130"/>
  </svg>
  <svg xmlns:xlink="http://www.w3.org/1999/xlink" width="32" height="32" y="160">
    <defs>
      <path d="M20 8h-8s-2 0-2 2v8c0 2.29 2 2 2 2v12h8V20s2 .29 2-2v-8s0-2-2-2zm-4-2a3 3 0 1 0 0-6 3 3 0 0 0 0 6z" id="i"/>
    </defs>
    <g fill="none" fill-rule="evenodd">
      <mask id="j" fill="#fff">
        <use xlink:href="#i"/>
      </mask>
      <use fill="#000" fill-rule="nonzero" xlink:href="#i"/>
      <g mask="url(#j)" fill="#0A578C">
        <path d="M0 0h32v32H0z"/>
      </g>
    </g>
  </svg>
  <svg xmlns="http://www.w3.org/2000/svg" width="32" height="32" y="192">
    <path fill="#0A578C" d="M26.7 3.9h-.2v-.6C26.5 1.5 25 0 23.2 0h-5C16.5 0 15 1.5 15 3.3V4h-1.9c-.3 0-.6.1-.8.3l-6.5 6.5c-.2.2-.3.5-.3.8v18.7c0 1 .8 1.7 1.7 1.7h19.5c1 0 1.7-.8 1.7-1.7V5.7c.1-1-.7-1.8-1.7-1.8zm-9.3-.6c0-.5.4-.9.9-.9h5c.5 0 .9.4.9.9V4h-6.8v-.7zM5.6 8.5c-.3 0-.6-.1-.8-.3l-.9-1c-.5-.4-.5-1.2 0-1.6l3.5-3.5c.2-.2.5-.3.8-.3.3 0 .6.1.8.3l.9.9c.5.5.5 1.2 0 1.7L6.5 8.2c-.2.2-.5.3-.9.3z"/>
  </svg>
  <svg xmlns="http://www.w3.org/2000/svg" width="32" height="32" y="224">
    <path fill="#0A578C" d="M29.5 4.2l-2.7-2.7c-.3-.3-.7-.3-.9 0-.3.3-.3.7 0 .9l2.2 2.2-2.2 2.2c-.1.1-.2.3-.2.5v2c0 1.5 1.2 2.7 2.7 2.7v11.3c0 .4-.3.7-.7.7-.4 0-.7-.3-.7-.7V22a2 2 0 0 0-2-2h-.7V2.7c0-1.5-1.2-2.7-2.7-2.7H8.3C6.9 0 5.7 1.2 5.7 2.7v24c-1.5 0-2.7 1.2-2.7 2.7v2c0 .3.3.6.7.6h22.7c.4 0 .7-.3.7-.7v-2c0-1.5-1.2-2.7-2.7-2.7v-5.3h.6c.4 0 .7.3.7.7v1.3c0 1.1.9 2 2 2s2-.9 2-2V4.7c0-.2-.1-.4-.2-.5zm-7.8 7.1c0 .4-.3.7-.7.7H9c-.4 0-.7-.3-.7-.7v-8c0-.3.3-.6.7-.6h12c.4 0 .7.3.7.7v7.9z"/>
  </svg>
    <svg xmlns="http://www.w3.org/2000/svg" width="32" height="32" y="256">
      <path fill="#FAD130" d="M29.4 24.1L25 19.8c-.9-.9-2.3-.8-3.2.1L19.7 22l-.4-.2C17.9 21 16 20 14 18c-2-2-3-3.9-3.8-5.2-.1-.1-.2-.3-.2-.4l1.5-1.5.7-.7c.9-.9.9-2.3.1-3.2L7.9 2.7c-.9-.9-2.3-.9-3.2 0L3.5 3.9c-.4.5-.8 1.1-1 1.8-.2.6-.3 1.2-.4 1.8-.6 4.7 1.6 9.1 7.5 14.9 8.1 8.1 14.7 7.5 14.9 7.5.6-.1 1.2-.2 1.8-.5.6-.3 1.2-.6 1.8-1l1.2-1.2c.9-.8.9-2.2.1-3.1z"/>
  </svg>
  <svg height="32" viewBox="0 0 139 139" width="32" y="288">
    <path fill="#000" d="M69.9 6.77v-.02h-.8v.02A49.14 49.14 0 0 0 20.75 55.9c0 36.22 42.52 70.6 48.75 75.48 6.23-4.88 48.75-39.26 48.75-75.48A49.14 49.14 0 0 0 69.9 6.76zm0 70.27a25.36 25.36 0 1 1-.01-50.73 25.36 25.36 0 0 1 0 50.73z"/>
  </svg>
  <svg xmlns="http://www.w3.org/2000/svg" width="32" height="32" y="320">
    <path fill="#000" d="M29.5 4.2l-2.7-2.7c-.3-.3-.7-.3-.9 0-.3.3-.3.7 0 .9l2.2 2.2-2.2 2.2c-.1.1-.2.3-.2.5v2c0 1.5 1.2 2.7 2.7 2.7v11.3c0 .4-.3.7-.7.7-.4 0-.7-.3-.7-.7V22a2 2 0 0 0-2-2h-.7V2.7c0-1.5-1.2-2.7-2.7-2.7H8.3C6.9 0 5.7 1.2 5.7 2.7v24c-1.5 0-2.7 1.2-2.7 2.7v2c0 .3.3.6.7.6h22.7c.4 0 .7-.3.7-.7v-2c0-1.5-1.2-2.7-2.7-2.7v-5.3h.6c.4 0 .7.3.7.7v1.3c0 1.1.9 2 2 2s2-.9 2-2V4.7c0-.2-.1-.4-.2-.5zm-7.8 7.1c0 .4-.3.7-.7.7H9c-.4 0-.7-.3-.7-.7v-8c0-.3.3-.6.7-.6h12c.4 0 .7.3.7.7v7.9z"/>
  </svg>
  <svg xmlns="http://www.w3.org/2000/svg" width="32" height="32" y="352">
    <path d="M32 6.9c0-.9-.7-1.5-1.6-1.5H1.6C.7 5.4 0 6 0 6.9v2.9h32V6.9zM1.6 26.6h28.8c.9 0 1.6-.6 1.6-1.5V13.4H0V25c0 1 .7 1.6 1.6 1.6zm26-6.3c1 0 1.8.8 1.8 1.8s-.8 1.8-1.8 1.8-1.8-.8-1.8-1.8.8-1.8 1.8-1.8zm-25 1.6c0-.9.7-1.5 1.5-1.5h7.3c.8 0 1.5.6 1.5 1.5v.5c0 .9-.7 1.6-1.5 1.6H4.1c-.8 0-1.5-.8-1.5-1.6v-.5z"/>
  </svg>
  <svg xmlns:xlink="http://www.w3.org/1999/xlink" width="32" height="32" y="384">
    <defs>
      <path d="M31.8 16c0-.58-.48-1.07-1.07-1.07h-1.54l1.46-1.46a1.08 1.08 0 0 0-1.52-1.52l-2.98 2.98H18.5l5.4-5.4h4.23a1.08 1.08 0 0 0 0-2.15h-2.07l1.09-1.1a1.08 1.08 0 0 0-1.52-1.52l-1.1 1.1V3.78a1.08 1.08 0 0 0-2.15 0V8l-5.4 5.4V5.77l2.98-2.99a1.08 1.08 0 1 0-1.52-1.52l-1.46 1.46V1.18a1.08 1.08 0 0 0-2.15 0v1.54l-1.47-1.46a1.08 1.08 0 1 0-1.52 1.52l2.99 2.99v7.64l-5.4-5.4V3.79a1.08 1.08 0 0 0-2.16 0v2.06l-1.1-1.09a1.08 1.08 0 1 0-1.5 1.54l1.09 1.09H3.68a1.08 1.08 0 0 0 0 2.15H7.9l5.4 5.4H5.67l-2.98-2.98a1.08 1.08 0 1 0-1.52 1.52l1.46 1.46H1.08a1.08 1.08 0 1 0 0 2.16h1.54l-1.46 1.46a1.08 1.08 0 1 0 1.52 1.52l2.98-2.98h7.65L7.9 22.5H3.68a1.08 1.08 0 0 0 0 2.15h2.07l-1.1 1.1a1.08 1.08 0 1 0 1.53 1.52l1.09-1.1v2.07a1.08 1.08 0 1 0 2.15 0v-4.22l5.4-5.4v7.64l-2.98 2.99a1.08 1.08 0 1 0 1.52 1.52l1.47-1.47v1.55a1.08 1.08 0 0 0 2.15 0V29.3l1.46 1.47a1.07 1.07 0 0 0 1.52 0c.42-.42.42-1.1 0-1.52l-2.98-2.99v-7.64l5.4 5.4v4.22a1.08 1.08 0 0 0 2.16 0v-2.07l1.09 1.1a1.07 1.07 0 0 0 1.52 0c.42-.43.42-1.1 0-1.53l-1.1-1.09h2.08a1.08 1.08 0 0 0 0-2.15H23.9l-5.41-5.4h7.65l2.98 2.98a1.07 1.07 0 0 0 1.52 0c.42-.42.42-1.1 0-1.52l-1.46-1.46h1.54c.6 0 1.08-.49 1.08-1.08z" id="a"/>
    </defs>
    <g fill="none" fill-rule="evenodd">
      <mask id="b" fill="#fff">
        <use xlink:href="#a"/>
      </mask>
      <use fill="#000" fill-rule="nonzero" xlink:href="#a"/>
      <g mask="url(#b)" fill="#9C9C9C">
        <path d="M0 0h32v32H0z"/>
      </g>
    </g>
  </svg>
  <svg xmlns:xlink="http://www.w3.org/1999/xlink" width="32" height="32" y="416">
    <defs>
      <path d="M1.84 27.67h1.84V8.07H1.84A1.82 1.82 0 0 0 0 9.9v15.94c0 1.01.82 1.83 1.84 1.83zm16.14-19.6h-4.09a2.04 2.04 0 1 1 4.09 0zM4.9 27.66h22.06V8.07H19a3.06 3.06 0 1 0-6.13 0H4.9v19.6zm26.97-1.83V9.9c0-1.01-.83-1.84-1.84-1.84h-1.84v19.61h1.84c1.01 0 1.84-.82 1.84-1.83z" id="c"/>
    </defs>
    <g fill="none" fill-rule="evenodd">
      <mask id="d" fill="#fff">
        <use xlink:href="#c"/>
      </mask>
      <use fill="#000" fill-rule="nonzero" xlink:href="#c"/>
      <g mask="url(#d)" fill="#9C9C9C">
        <path d="M0 0h32v32H0z"/>
      </g>
    </g>
  </svg>
  <svg xmlns:xlink="http://www.w3.org/1999/xlink" width="32" height="32" y="448">
    <defs>
      <path d="M25.06 17.71v-5.43l4.8 4.8a1.05 1.05 0 0 0 1.48 0c.41-.42.41-1.08 0-1.5l-6.28-6.3V5.04A5.07 5.07 0 0 0 20 0h-8.3a5.07 5.07 0 0 0-5.07 5.04v4.24l-6.27 6.3a1.05 1.05 0 1 0 1.48 1.5l4.8-4.8v5.43L.34 24a1.05 1.05 0 1 0 1.48 1.48l4.8-4.79v6.18a5.06 5.06 0 0 0 5.06 5.04H20a5.07 5.07 0 0 0 5.07-5.04v-6.18l4.8 4.8a1.05 1.05 0 0 0 1.48 0c.41-.42.41-1.08 0-1.5l-6.28-6.27zM11.7 2.1H20a2.94 2.94 0 0 1 2.94 2.94v2.33a3.9 3.9 0 0 0-1.82-.47H10.57a3.9 3.9 0 0 0-1.82.47V5.04A2.94 2.94 0 0 1 11.7 2.1zM20 29.8h-8.3a2.94 2.94 0 0 1-2.94-2.94v-.23a3.9 3.9 0 0 0 1.82.47h10.54a3.9 3.9 0 0 0 1.82-.47v.23A2.94 2.94 0 0 1 20 29.8z" id="e"/>
    </defs>
    <g fill="none" fill-rule="evenodd">
      <mask id="f" fill="#fff">
        <use xlink:href="#e"/>
      </mask>
      <use fill="#000" fill-rule="nonzero" xlink:href="#e"/>
      <g mask="url(#f)" fill="#9C9C9C">
        <path d="M0 0h32v32H0z"/>
      </g>
    </g>
  </svg>
  <svg xmlns:xlink="http://www.w3.org/1999/xlink" width="32" height="32" y="480">
    <defs>
      <path d="M28 7.83V17h-9.17A3 3 0 0 1 17 18.83v5.34a3 3 0 1 1-2 0v-5.34A3 3 0 0 1 13.17 17H6v7.17a3 3 0 1 1-2 0V7.83a3 3 0 1 1 2 0V15h7.17A3 3 0 0 1 15 13.17V7.83a3 3 0 1 1 2 0v5.34A3 3 0 0 1 18.83 15H26V7.83a3 3 0 1 1 2 0z" id="g"/>
    </defs>
    <g fill="none" fill-rule="evenodd">
      <mask id="h" fill="#fff">
        <use xlink:href="#g"/>
      </mask>
      <use fill="#D8D8D8" xlink:href="#g"/>
      <g mask="url(#h)" fill="#9C9C9C">
        <path d="M0 0h32v32H0z"/>
      </g>
    </g>
  </svg>
  <svg xmlns:xlink="http://www.w3.org/1999/xlink" width="32" height="32" y="512">
    <defs>
      <path d="M20 8h-8s-2 0-2 2v8c0 2.29 2 2 2 2v12h8V20s2 .29 2-2v-8s0-2-2-2zm-4-2a3 3 0 1 0 0-6 3 3 0 0 0 0 6z" id="i"/>
    </defs>
    <g fill="none" fill-rule="evenodd">
      <mask id="j" fill="#fff">
        <use xlink:href="#i"/>
      </mask>
      <use fill="#000" fill-rule="nonzero" xlink:href="#i"/>
      <g mask="url(#j)" fill="#9C9C9C">
        <path d="M0 0h32v32H0z"/>
      </g>
    </g>
  </svg>
  <svg xmlns="http://www.w3.org/2000/svg" width="32" height="32" y="544">
    <path fill="#9C9C9C" d="M26.7 3.9h-.2v-.6C26.5 1.5 25 0 23.2 0h-5C16.5 0 15 1.5 15 3.3V4h-1.9c-.3 0-.6.1-.8.3l-6.5 6.5c-.2.2-.3.5-.3.8v18.7c0 1 .8 1.7 1.7 1.7h19.5c1 0 1.7-.8 1.7-1.7V5.7c.1-1-.7-1.8-1.7-1.8zm-9.3-.6c0-.5.4-.9.9-.9h5c.5 0 .9.4.9.9V4h-6.8v-.7zM5.6 8.5c-.3 0-.6-.1-.8-.3l-.9-1c-.5-.4-.5-1.2 0-1.6l3.5-3.5c.2-.2.5-.3.8-.3.3 0 .6.1.8.3l.9.9c.5.5.5 1.2 0 1.7L6.5 8.2c-.2.2-.5.3-.9.3z"/>
  </svg>
  <svg xmlns="http://www.w3.org/2000/svg" width="32" height="32" y="576" viewBox="480 0 32 32">
    <path fill="#00A200" d="M496 0c-8.8 0-16 7.2-16 16s7.2 16 16 16 16-7.2 16-16-7.2-16-16-16zm0 4c5.2 0 9.6 3.4 11.3 8h-22.5c1.6-4.6 6-8 11.2-8zm0 14c-1.1 0-2-.9-2-2s.9-2 2-2 2 .9 2 2-.9 2-2 2zm-12-2c5.5 0 9.9 5.3 10 11.8-5.7-1-10-5.9-10-11.8zm14 11.8c.1-6.5 4.5-11.8 10-11.8 0 5.9-4.3 10.8-10 11.8z"/>
  </svg>
  <svg xmlns="http://www.w3.org/2000/svg" width="32" height="32" y="608" viewBox="480 0 32 32">
    <path fill="#9c9c9c" d="M496 0c-8.8 0-16 7.2-16 16s7.2 16 16 16 16-7.2 16-16-7.2-16-16-16zm0 4c5.2 0 9.6 3.4 11.3 8h-22.5c1.6-4.6 6-8 11.2-8zm0 14c-1.1 0-2-.9-2-2s.9-2 2-2 2 .9 2 2-.9 2-2 2zm-12-2c5.5 0 9.9 5.3 10 11.8-5.7-1-10-5.9-10-11.8zm14 11.8c.1-6.5 4.5-11.8 10-11.8 0 5.9-4.3 10.8-10 11.8z"/>
  </svg>
  <svg xmlns="http://www.w3.org/2000/svg" width="32" height="32" y="640" viewBox="528 0 32 32">
    <path d="M544 0c-8.8 0-16 7.2-16 16s7.2 16 16 16 16-7.2 16-16-7.2-16-16-16zm0 28.5c-6.9 0-12.5-5.6-12.5-12.5S537.1 3.5 544 3.5s12.5 5.6 12.5 12.5-5.6 12.5-12.5 12.5z"/><path d="M545.4 16V9.3c0-.7-.6-1.4-1.4-1.4-.7 0-1.4.6-1.4 1.4V16.5c0 .4.1.7.4 1l5 5c.5.5 1.4.5 1.9 0s.5-1.4 0-1.9l-4.5-4.6z"/>
  </svg>
  <svg xmlns="http://www.w3.org/2000/svg" width="32" height="32" y="672" viewBox="0 0 32 32">
    <path d="M27.4 4.8c-6.1-6.3-16.3-6.4-22.6-.2s-6.4 16.3-.2 22.6l.2.2c6.3 6.2 16.4 6.1 22.6-.2 6.1-6.2 6.1-16.2 0-22.4zm-9.2 18.3c0 1.2-.9 2.1-2.1 2.1s-2.1-1-2.1-2.1v-8.3c0-1.2.9-2.1 2.1-2.1s2.1.9 2.1 2.1v8.3zm-2.1-11.9c-1.2 0-2-.8-2-1.9 0-1.1.8-1.9 2-1.9s2 .8 2 1.9c0 1-.8 1.9-2 1.9z"/>
  </svg>
  <svg xmlns="http://www.w3.org/2000/svg" width="32" height="32" y="704" fill="none">
    <path d="M26.554 29.611c.04.45.093 1.124-.569 1.825-.807.807-1.138.675-1.469.066 0 0-6.663-11.88-6.921-12.31-.258-.43-.563-.482-1.046-.053-.483.43-3.136 3.015-3.434 3.312-.298.298-.272.35-.298.681l-.582 4.813c-.013.238-.12.476-.305.662l-.82.82c-.417.416-.669.297-.867-.219-.199-.516-1.006-3.305-1.006-3.305-.026-.067-.179-.43-.298-.55-.278-.277-.529-.541-.992-.171-.84.668-1.668 1.018-1.906.78s.113-1.064.78-1.904c.365-.47.107-.714-.171-.992-.12-.119-.483-.27-.55-.297 0 0-2.792-.807-3.308-1.005-.516-.198-.635-.45-.218-.866l.82-.82c.185-.185.417-.284.662-.304l4.817-.582c.331-.026.384.013.682-.297.298-.311 2.885-2.949 3.315-3.432.43-.482.377-.786-.053-1.044S.496 7.503.496 7.503c-.602-.323-.741-.66.066-1.467.688-.688 1.363-.635 1.813-.595.45.04 16.834 2.644 16.9 2.644.735-.006 1.033-.343 1.615-.872 0 0 4.625-4.503 6.233-5.937 1.608-1.435 3.388-1.64 4.315-.714.926.925.721 2.717-.715 4.323-1.436 1.607-5.942 6.228-5.942 6.228-.53.582-.867.88-.874 1.68 0 0 2.614 16.375 2.647 16.818z" fill="#000"/>
  </svg>
  <svg xmlns="http://www.w3.org/2000/svg" width="32" height="32" y="736" viewBox="528 0 32 32">
    <path fill="#FAD130" d="M544 0c-8.8 0-16 7.2-16 16s7.2 16 16 16 16-7.2 16-16-7.2-16-16-16zm0 28.5c-6.9 0-12.5-5.6-12.5-12.5S537.1 3.5 544 3.5s12.5 5.6 12.5 12.5-5.6 12.5-12.5 12.5z"/><path fill="#FAD130" d="M545.4 16V9.3c0-.7-.6-1.4-1.4-1.4-.7 0-1.4.6-1.4 1.4V16.5c0 .4.1.7.4 1l5 5c.5.5 1.4.5 1.9 0s.5-1.4 0-1.9l-4.5-4.6z"/>
  </svg>
</svg>
