<svg xmlns="http://www.w3.org/2000/svg" viewBox="63.8 0 112.1 224.6">
  <path fill="#FFF" d="M87.8 112.5h64.1c13.5 0 24 10.5 24 24v64.1c0 13.5-10.5 24-24 24H87.8c-13.5 0-24-10.5-24-24v-64.1c0-13.5 10.5-24 24-24z"/>
  <g fill="#FFF">
    <path d="M87.8 0h64.1c13.5 0 24 10.5 24 24v64.1c0 13.5-10.5 24-24 24H87.8c-13.5 0-24-10.5-24-24V24c0-13.5 10.5-24 24-24z"/>
    <path d="M87.8 0h64.1c13.5 0 24 10.5 24 24v64.1c0 13.5-10.5 24-24 24H87.8c-13.5 0-24-10.5-24-24V24c0-13.5 10.5-24 24-24z"/>
  </g>
  <path fill="#00A1FF" d="M105.8 181.6l-9-9a6.58 6.58 0 0 0-9.2 0 6.6 6.6 0 0 0-1.9 4.6c0 1.7.7 3.4 1.9 4.6l13.6 13.6c2.5 2.5 6.7 2.5 9.2 0l41.6-41.6a6.6 6.6 0 0 0 1.9-4.6c0-1.7-.7-3.4-1.9-4.6a6.58 6.58 0 0 0-9.2 0l-37 37z"/>
</svg>
